<?xml version="1.0" standalone="no"?>
<!DOCTYPE svg PUBLIC "-//W3C//DTD SVG 20010904//EN"
 "http://www.w3.org/TR/2001/REC-SVG-20010904/DTD/svg10.dtd">
<svg version="1.0" xmlns="http://www.w3.org/2000/svg"
 width="1024.000000pt" height="1024.000000pt" viewBox="0 0 1024.000000 1024.000000"
 preserveAspectRatio="xMidYMid meet">

<g transform="translate(0.000000,1024.000000) scale(0.100000,-0.100000)"
fill="#000000" stroke="none">
<path d="M1989 9110 c-416 -49 -759 -360 -855 -775 -18 -77 -19 -191 -19
-3215 0 -2997 1 -3139 18 -3220 10 -47 36 -127 57 -178 119 -285 356 -488 670
-574 l85 -23 3165 0 c3050 0 3168 1 3245 19 186 43 336 126 471 260 126 126
211 269 266 446 l23 75 3 3155 c3 3503 8 3221 -64 3399 -122 303 -368 520
-689 609 l-100 27 -3105 1 c-1708 1 -3135 -2 -3171 -6z m3622 -1340 c138 -14
322 -52 439 -90 126 -42 337 -145 428 -210 218 -154 384 -376 465 -620 51
-154 62 -232 62 -435 0 -206 -17 -319 -71 -461 -80 -213 -234 -412 -435 -564
-46 -34 -84 -67 -84 -71 0 -5 34 -25 75 -45 210 -100 457 -316 569 -497 324
-526 246 -1213 -189 -1656 -299 -305 -733 -503 -1205 -551 -76 -8 -458 -10
-1230 -8 -1111 3 -1120 3 -1165 24 -50 23 -104 79 -129 133 -15 33 -16 243
-16 2446 l0 2410 28 58 c33 65 76 103 150 128 49 17 122 18 1128 19 678 0
1115 -4 1180 -10z"/>
<path d="M4300 6236 l0 -526 513 0 c401 0 526 3 578 14 214 46 380 180 441
356 32 93 31 250 -2 335 -60 156 -190 266 -377 317 -74 21 -103 22 -615 26
l-538 4 0 -526z"/>
<path d="M4300 4165 l0 -585 558 0 c590 0 666 5 795 49 209 72 351 222 387
409 19 95 9 254 -20 322 -57 132 -140 221 -270 289 -179 93 -250 101 -912 101
l-538 0 0 -585z"/>
</g>
</svg>
